<svg width="303" height="303" viewBox="0 0 303 303" fill="none" xmlns="http://www.w3.org/2000/svg">
<g clip-path="url(#clip0_4764_165151)">
<path d="M220.335 3.04753C222.005 -1.01584 227.76 -1.01584 229.431 3.04753L231.265 7.50975C231.764 8.72432 232.729 9.6887 233.943 10.188L238.406 12.0224C242.469 13.6928 242.469 19.4475 238.406 21.118L233.943 22.9523C232.729 23.4516 231.764 24.416 231.265 25.6306L229.431 30.0928C227.76 34.1562 222.005 34.1562 220.335 30.0928L218.501 25.6306C218.001 24.416 217.037 23.4516 215.822 22.9523L211.36 21.118C207.297 19.4475 207.297 13.6928 211.36 12.0224L215.822 10.188C217.037 9.6887 218.001 8.72432 218.501 7.50975L220.335 3.04753Z" fill="#0C6165"/>
<path d="M30.5482 7.75599C28.892 3.72717 23.1861 3.72717 21.5299 7.75599L18.2908 15.6352C17.7957 16.8395 16.8396 17.7957 15.6353 18.2907L7.75601 21.5298C3.72716 23.186 3.72716 28.8918 7.75601 30.548L15.6353 33.7871C16.8396 34.2822 17.7957 35.2384 18.2908 36.4426L21.5299 44.3218C23.1861 48.3507 28.892 48.3507 30.5482 44.3218L33.7873 36.4426C34.2824 35.2384 35.2386 34.2822 36.4428 33.7871L44.3221 30.548C48.351 28.8918 48.351 23.186 44.3221 21.5298L36.4428 18.2907C35.2386 17.7957 34.2824 16.8395 33.7873 15.6352L30.5482 7.75599Z" fill="#0C6165"/>
<path d="M56.8125 75.75V80.4844H42.6094C32.1505 80.4844 23.6719 88.963 23.6719 99.4219V260.391C23.6719 270.85 32.1505 279.328 42.6094 279.328H260.391C270.85 279.328 279.328 270.85 279.328 260.391V99.4219C279.328 88.963 270.85 80.4844 260.391 80.4844H226.724L213.724 57.0844C210.384 51.0724 204.047 47.3438 197.17 47.3438H153.174C152.987 47.3438 152.801 47.3465 152.614 47.352C152.428 47.3465 152.241 47.3438 152.054 47.3438H105.83C99.0572 47.3438 92.8083 50.9602 89.43 56.8125H75.75C65.2911 56.8125 56.8125 65.2911 56.8125 75.75Z" fill="#0C6165"/>
<path d="M291.049 40.9703C289.352 36.8432 283.507 36.8432 281.811 40.9703L281.402 41.9633C280.895 43.1969 279.916 44.1764 278.682 44.6835L277.689 45.0917C273.562 46.7883 273.562 52.6333 277.689 54.3299L278.682 54.7381C279.916 55.2452 280.895 56.2247 281.402 57.4583L281.811 58.4513C283.507 62.5783 289.352 62.5783 291.049 58.4513L291.457 57.4583C291.964 56.2247 292.944 55.2452 294.177 54.7381L295.17 54.3299C299.297 52.6333 299.297 46.7883 295.17 45.0917L294.177 44.6835C292.944 44.1764 291.964 43.1969 291.457 41.9633L291.049 40.9703Z" fill="#0C6165"/>
<path fill-rule="evenodd" clip-rule="evenodd" d="M246.188 182.273C246.188 210.096 224.63 231.984 198.844 231.984C173.057 231.984 151.5 210.096 151.5 182.273C151.5 154.451 173.057 132.562 198.844 132.562C224.63 132.562 246.188 154.451 246.188 182.273ZM231.984 182.273C231.984 201.884 217.147 217.781 198.844 217.781C180.541 217.781 165.703 201.884 165.703 182.273C165.703 162.663 180.541 146.766 198.844 146.766C217.147 146.766 231.984 162.663 231.984 182.273Z" fill="#7DF9FF"/>
<path d="M198.844 241.453C230.22 241.453 255.656 214.957 255.656 182.273C255.656 172.93 253.578 164.092 249.875 156.234H265.125C267.74 156.234 269.859 158.354 269.859 160.969V260.391C269.859 265.62 265.62 269.859 260.391 269.859H94.6875C89.4581 269.859 85.2188 265.62 85.2188 260.391V160.969C85.2188 158.354 87.3384 156.234 89.9531 156.234H124.14C120.438 164.092 118.359 172.93 118.359 182.273C118.359 214.957 143.795 241.453 175.172 241.453H198.844Z" fill="#7DF9FF"/>
<path d="M197.17 56.8125H153.174C149.735 56.8125 146.567 58.6768 144.897 61.6828L134.452 80.4844H215.892L205.447 61.6828C203.777 58.6768 200.608 56.8125 197.17 56.8125Z" fill="#E5FEFF"/>
<path d="M94.6875 89.9531H260.391C265.62 89.9531 269.859 94.1924 269.859 99.4219V142.031C269.859 144.646 267.74 146.766 265.125 146.766H244.298C233.933 132.392 217.431 123.094 198.844 123.094H175.172C156.585 123.094 140.083 132.392 129.718 146.766H89.9531C87.3384 146.766 85.2188 144.646 85.2188 142.031V99.4219C85.2188 94.1924 89.4581 89.9531 94.6875 89.9531Z" fill="#E5FEFF"/>
<path d="M204.306 203.578C202.399 203.578 202.182 201.048 203.669 199.854C208.453 196.015 211.59 189.573 211.59 182.273C211.59 174.974 208.453 168.532 203.669 164.693C202.182 163.499 202.399 160.969 204.306 160.969C214.363 160.969 222.516 170.507 222.516 182.273C222.516 194.04 214.363 203.578 204.306 203.578Z" fill="#E5FEFF"/>
<path d="M108.891 66.2812H94.6875C89.4581 66.2812 85.2188 70.5206 85.2188 75.75V80.4844H113.625C116.24 80.4844 118.359 78.3647 118.359 75.75C118.359 70.5206 114.12 66.2812 108.891 66.2812Z" fill="#E5FEFF"/>
</g>
<defs>
<clipPath id="clip0_4764_165151">
<rect width="303" height="303" fill="white"/>
</clipPath>
</defs>
</svg>
