<svg width="245" height="245" viewBox="0 0 245 245" fill="none" xmlns="http://www.w3.org/2000/svg">
<path fill-rule="evenodd" clip-rule="evenodd" d="M19.1406 49.7656C19.1406 41.3088 25.9963 34.4531 34.4531 34.4531H210.547C219.004 34.4531 225.859 41.3088 225.859 49.7656V168.438C225.859 176.894 219.004 183.75 210.547 183.75H202.891L202.891 202.891C202.891 202.913 202.891 202.936 202.89 202.958C202.864 209.618 198.997 214.533 193.957 216.815C192.996 217.256 191.981 217.601 190.925 217.836C189.471 218.168 187.968 218.297 186.47 218.203H178.541C172.103 218.203 165.96 215.501 161.61 210.755L136.855 183.75H34.4531C25.9963 183.75 19.1406 176.894 19.1406 168.438V49.7656Z" fill="#0C6165"/>
<path d="M28.893 205.334C30.2322 202.076 34.8459 202.076 36.1851 205.334L38.8042 211.705C39.2045 212.679 39.9776 213.452 40.9513 213.852L47.3224 216.471C50.58 217.81 50.58 222.424 47.3224 223.763L40.9513 226.382C39.9776 226.783 39.2044 227.556 38.8042 228.529L36.1851 234.901C34.8459 238.158 30.2322 238.158 28.893 234.901L26.274 228.529C25.8737 227.556 25.1005 226.783 24.1268 226.382L17.7557 223.763C14.4981 222.424 14.4981 217.81 17.7557 216.471L24.1268 213.852C25.1005 213.452 25.8737 212.679 26.274 211.705L28.893 205.334Z" fill="#0C6165"/>
<path d="M231.695 201.565C233.067 198.228 237.793 198.228 239.165 201.565L239.495 202.368C239.905 203.366 240.697 204.158 241.694 204.568L242.497 204.898C245.834 206.27 245.834 210.996 242.497 212.368L241.694 212.698C240.697 213.108 239.905 213.9 239.495 214.897L239.165 215.7C237.793 219.037 233.067 219.037 231.695 215.7L231.365 214.897C230.955 213.9 230.163 213.108 229.165 212.698L228.362 212.368C225.025 210.996 225.025 206.27 228.362 204.898L229.165 204.568C230.163 204.158 230.955 203.366 231.365 202.368L231.695 201.565Z" fill="#0C6165"/>
<path d="M224.096 6.29232C225.447 3.00673 230.1 3.00673 231.451 6.29232L232.934 9.90042C233.338 10.8825 234.117 11.6623 235.1 12.066L238.708 13.5493C241.993 14.8999 241.993 19.5532 238.708 20.9039L235.1 22.3871C234.118 22.7908 233.338 23.5706 232.934 24.5527L231.451 28.1608C230.1 31.4464 225.447 31.4464 224.096 28.1608L222.613 24.5527C222.209 23.5706 221.429 22.7908 220.447 22.3871L216.839 20.9039C213.554 19.5532 213.554 14.8999 216.839 13.5493L220.447 12.066C221.429 11.6623 222.209 10.8825 222.613 9.90042L224.096 6.29232Z" fill="#0C6165"/>
<path fill-rule="evenodd" clip-rule="evenodd" d="M157.91 176.094L181.453 207.484C185.868 213.371 195.234 210.248 195.234 202.891V176.094H210.547C214.775 176.094 218.203 172.666 218.203 168.438V49.7656C218.203 45.5372 214.775 42.1094 210.547 42.1094H61.25C57.0216 42.1094 53.5938 45.5372 53.5938 49.7656V168.438C53.5938 172.666 57.0216 176.094 61.25 176.094H157.91ZM93.7891 126.328C103.303 126.328 111.016 118.616 111.016 109.102C111.016 99.5876 103.303 91.875 93.7891 91.875C84.2751 91.875 76.5625 99.5876 76.5625 109.102C76.5625 118.616 84.2751 126.328 93.7891 126.328ZM153.125 109.102C153.125 118.616 145.412 126.328 135.898 126.328C126.384 126.328 118.672 118.616 118.672 109.102C118.672 99.5876 126.384 91.875 135.898 91.875C145.412 91.875 153.125 99.5876 153.125 109.102ZM178.008 126.328C187.522 126.328 195.234 118.616 195.234 109.102C195.234 99.5876 187.522 91.875 178.008 91.875C168.494 91.875 160.781 99.5876 160.781 109.102C160.781 118.616 168.494 126.328 178.008 126.328Z" fill="#7DF9FF"/>
<path d="M103.359 109.102C103.359 114.387 99.0746 118.672 93.7891 118.672C88.5035 118.672 84.2188 114.387 84.2188 109.102C84.2188 103.816 88.5035 99.5312 93.7891 99.5312C99.0746 99.5312 103.359 103.816 103.359 109.102Z" fill="#E5FEFF"/>
<path d="M145.469 109.102C145.469 114.387 141.184 118.672 135.898 118.672C130.613 118.672 126.328 114.387 126.328 109.102C126.328 103.816 130.613 99.5312 135.898 99.5312C141.184 99.5312 145.469 103.816 145.469 109.102Z" fill="#E5FEFF"/>
<path d="M187.578 109.102C187.578 114.387 183.293 118.672 178.008 118.672C172.722 118.672 168.438 114.387 168.438 109.102C168.438 103.816 172.722 99.5312 178.008 99.5312C183.293 99.5312 187.578 103.816 187.578 109.102Z" fill="#E5FEFF"/>
</svg>
