<svg width="273" height="273" viewBox="0 0 273 273" fill="none" xmlns="http://www.w3.org/2000/svg">
<path d="M38.3906 55.4531C28.9673 55.4531 21.3281 63.0923 21.3281 72.5156V234.609C21.3281 244.033 28.9673 251.672 38.3906 251.672H217.547C226.97 251.672 234.609 244.033 234.609 234.609V187.688C244.033 187.688 251.672 180.048 251.672 170.625V136.5C251.672 127.077 244.033 119.438 234.609 119.438V72.5156C234.609 63.0923 226.97 55.4531 217.547 55.4531H38.3906Z" fill="#0C6165"/>
<path d="M15.0978 7.01142C16.6028 3.35036 21.7878 3.35036 23.2929 7.01142L24.9456 11.0318C25.3955 12.1261 26.2644 12.995 27.3587 13.4449L31.3792 15.0977C35.0403 16.6027 35.0403 21.7877 31.3792 23.2927L27.3587 24.9455C26.2644 25.3953 25.3955 26.2642 24.9456 27.3585L23.2929 31.3789C21.7878 35.04 16.6028 35.04 15.0978 31.3789L13.445 27.3585C12.9951 26.2642 12.1262 25.3953 11.0319 24.9455L7.01144 23.2927C3.35035 21.7877 3.35035 16.6027 7.01144 15.0977L11.0319 13.4449C12.1262 12.995 12.9951 12.1261 13.445 11.0318L15.0978 7.01142Z" fill="#0C6165"/>
<path d="M245.476 6.98807C246.969 3.35814 252.11 3.35814 253.602 6.98807L256.52 14.0872C256.966 15.1722 257.828 16.0337 258.913 16.4797L266.012 19.3981C269.642 20.8903 269.642 26.0313 266.012 27.5235L258.913 30.4419C257.828 30.8879 256.966 31.7494 256.52 32.8344L253.602 39.9335C252.11 43.5635 246.969 43.5635 245.476 39.9335L242.558 32.8344C242.112 31.7494 241.25 30.8879 240.165 30.4419L233.066 27.5235C229.436 26.0313 229.436 20.8903 233.066 19.3981L240.165 16.4797C241.25 16.0337 242.112 15.1722 242.558 14.0872L245.476 6.98807Z" fill="#0C6165"/>
<path d="M72.5156 63.9844C67.8039 63.9844 63.9844 67.8039 63.9844 72.5156V76.7812C63.9844 81.4929 67.8039 85.3125 72.5156 85.3125H226.078V72.5156C226.078 67.8039 222.259 63.9844 217.547 63.9844H72.5156Z" fill="#7DF9FF"/>
<path d="M72.5156 93.8438C67.8039 93.8438 63.9844 97.6633 63.9844 102.375V204.75C63.9844 209.462 67.8039 213.281 72.5156 213.281H226.078V187.688H149.297C139.874 187.688 132.234 180.048 132.234 170.625V136.5C132.234 127.077 139.874 119.438 149.297 119.438H226.078V93.8438H72.5156Z" fill="#7DF9FF"/>
<path d="M63.9844 234.609C63.9844 239.321 67.8039 243.141 72.5156 243.141H217.547C222.259 243.141 226.078 239.321 226.078 234.609V221.812H72.5156C67.8039 221.812 63.9844 225.632 63.9844 230.344V234.609Z" fill="#7DF9FF"/>
<path fill-rule="evenodd" clip-rule="evenodd" d="M166.359 127.969C161.648 127.969 157.828 131.788 157.828 136.5V170.625C157.828 175.337 161.648 179.156 166.359 179.156H234.609C239.321 179.156 243.141 175.337 243.141 170.625V136.5C243.141 131.788 239.321 127.969 234.609 127.969H166.359ZM187.688 166.359C194.755 166.359 200.484 160.63 200.484 153.562C200.484 146.495 194.755 140.766 187.688 140.766C180.62 140.766 174.891 146.495 174.891 153.562C174.891 160.63 180.62 166.359 187.688 166.359Z" fill="#E5FEFF"/>
</svg>
